<svg width="1046" height="639" viewBox="0 0 1046 639" fill="none" xmlns="http://www.w3.org/2000/svg">
<g clip-path="url(#clip0)">
<path d="M161.231 554.645C169.796 586.307 199.133 605.916 199.133 605.916C199.133 605.916 214.584 574.191 206.019 542.529C197.454 510.867 168.116 491.258 168.116 491.258C168.116 491.258 152.666 522.983 161.231 554.645Z" fill="#3F3D56"/>
<path d="M173.817 547.841C197.319 570.72 200.19 605.89 200.19 605.89C200.19 605.89 164.955 603.966 141.452 581.087C117.95 558.208 115.079 523.038 115.079 523.038C115.079 523.038 150.314 524.962 173.817 547.841Z" fill="#3292A6"/>
<path d="M941.078 636.029H113.474V638.584H941.078V636.029Z" fill="#2F2E41"/>
<path d="M210.733 637.306H177.526V604.1H210.733V637.306ZM180.081 634.752H208.178V606.654H180.081V634.752Z" fill="#3F3D56"/>
<path d="M281.42 25.3218H0V306.742H281.42V25.3218Z" fill="#3F3D56"/>
<path d="M281.42 95.3377V101.797C277.131 98.9552 273.669 95.0309 271.384 90.4213C267.637 82.7586 267.756 73.9261 267.874 65.3818C268.01 55.227 268.146 45.6485 261.703 39.4098C254.617 32.5607 243.276 33.527 232.307 34.4595C231.019 34.5613 229.73 34.6798 228.459 34.7815C217.456 35.6123 205.199 32.832 199.249 25.3218H206.674C212.116 28.9836 220.44 30.2721 228.086 29.6956C229.323 29.6109 230.595 29.4922 231.866 29.3905C243.411 28.4073 256.499 27.2883 265.23 35.7479C273.265 43.5124 273.113 54.6675 272.96 65.4496C272.842 73.4006 272.74 81.6058 275.961 88.1835C277.297 90.901 279.152 93.3312 281.42 95.3377Z" fill="#3292A6"/>
<path d="M281.42 140.009V147.57C280.185 145.956 278.8 144.463 277.283 143.111C268.536 135.398 255.973 133.702 243.835 132.041C242.258 131.837 240.716 131.617 239.173 131.397C219.49 128.566 207.284 121.801 201.876 110.765C198.13 103.102 198.248 94.2697 198.367 85.7254C198.503 75.5706 198.638 65.9921 192.196 59.7534C185.11 52.9043 173.768 53.8706 162.8 54.8031C161.511 54.9049 160.223 55.0234 158.951 55.1251C144.812 56.1931 128.588 51.2938 126.368 38.0536C125.605 33.5101 126.741 29.3397 128.419 25.3218H133.98C132.115 29.3567 130.725 33.2558 131.386 37.2059C133.064 47.3098 146.66 50.9378 158.578 50.0392C159.816 49.9545 161.087 49.8358 162.359 49.7341C173.904 48.7509 186.992 47.6319 195.722 56.0915C203.758 63.856 203.605 75.0111 203.453 85.7932C203.334 93.7442 203.233 101.949 206.454 108.527C211.065 117.953 222 123.785 239.902 126.362C241.428 126.582 242.97 126.802 244.513 127.006C257.397 128.752 270.739 130.566 280.657 139.297C280.911 139.517 281.165 139.755 281.42 140.009Z" fill="#3292A6"/>
<path d="M281.42 267.461V277.905C275.3 271.395 270.18 262.46 266.264 251.288C265.433 248.915 264.636 246.491 263.84 244.066C259.449 230.792 254.905 217.077 244.089 208.313C232.527 198.954 215.964 196.886 199.944 194.886C197.892 194.631 195.841 194.377 193.807 194.106C167.835 190.664 151.746 182.476 144.609 169.083C139.659 159.776 139.811 149.062 139.964 138.704C140.15 126.396 140.337 114.766 131.826 107.205C122.485 98.8978 107.516 100.068 93.055 101.203C91.3427 101.339 89.6474 101.475 87.9861 101.593C69.3208 102.882 47.9091 96.9482 44.9932 80.8937C43.5522 73.0276 47.231 66.0598 50.7742 59.3126C52.8086 55.4472 54.7411 51.7685 55.7244 47.988C57.7927 40.2065 55.2328 31.4418 49.5535 25.3218H57.8605C60.2577 28.8033 61.8887 32.7539 62.6456 36.9125C63.4025 41.0712 63.2681 45.3431 62.2513 49.4459C61.0816 53.8706 58.9116 58.0072 56.8094 62.0081C53.5714 68.1451 50.5368 73.943 51.6048 79.8766C53.8427 92.1166 71.762 96.5244 87.4774 95.4394C89.1218 95.3207 90.8002 95.1851 92.4785 95.0665C107.702 93.8628 124.961 92.5236 136.489 102.78C147.084 112.189 146.881 125.717 146.677 138.788C146.542 148.435 146.389 158.386 150.627 166.371C156.713 177.78 171.157 184.866 194.773 188.003C196.773 188.274 198.808 188.528 200.842 188.783C217.863 190.902 235.443 193.089 248.514 203.684C260.771 213.619 265.603 228.181 270.248 242.269C271.044 244.677 271.841 247.05 272.655 249.407C274.811 255.767 277.755 261.833 281.42 267.461V267.461Z" fill="#3292A6"/>
<path d="M0 138.958C7.73057 148.316 24.1241 151.774 38.8224 150.757C40.4838 150.638 42.1791 150.503 43.8913 150.367C58.3522 149.231 73.3217 148.062 82.6628 156.369C91.1732 163.93 90.9867 175.559 90.8003 187.867C90.6477 198.226 90.4951 208.94 95.4454 218.247C102.583 231.64 118.671 239.828 144.643 243.27C146.677 243.541 148.729 243.795 150.78 244.049C166.801 246.05 183.364 248.118 194.926 257.476C205.742 266.241 210.285 279.956 214.676 293.23C215.473 295.654 216.269 298.079 217.1 300.452C217.863 302.639 218.677 304.724 219.524 306.742H226.78C225.509 303.978 224.424 301.215 223.491 298.57C222.678 296.214 221.881 293.84 221.084 291.433C216.439 277.345 211.607 262.783 199.35 252.848C186.28 242.253 168.699 240.066 151.678 237.946C149.644 237.692 147.61 237.438 145.609 237.167C121.994 234.03 107.55 226.944 101.464 215.535C97.2255 207.55 97.378 197.598 97.5137 187.952C97.7171 174.881 97.9206 161.353 87.325 151.944C75.797 141.687 58.5388 143.027 43.3149 144.23C41.6366 144.349 39.9583 144.485 38.3138 144.603C22.5984 145.688 4.67907 141.28 2.44127 129.04C1.37327 123.107 4.40782 117.309 7.64584 111.172C9.74801 107.171 11.918 103.035 13.0878 98.6098C16.2749 86.5053 10.9008 73.0955 3.8147e-05 65.7718V74.0788C5.95054 80.2158 8.66304 89.1839 6.56085 97.1518C5.57758 100.932 3.64493 104.611 1.61057 108.476C1.06808 109.511 0.525568 110.528 3.8147e-05 111.579L0 138.958Z" fill="#3292A6"/>
<path d="M124.486 306.742H117.45C117.077 305.64 116.721 304.521 116.348 303.402C111.958 290.128 107.414 276.413 96.5981 267.648C85.0361 258.29 68.4731 256.222 52.4526 254.221C50.4012 253.967 48.35 253.713 46.3156 253.441C23.3951 250.407 8.15439 243.659 0 232.911V216.043C0.524076 219.411 1.58284 222.673 3.13626 225.706C9.22244 237.116 23.6664 244.202 47.2819 247.338C49.2824 247.61 51.3168 247.864 53.351 248.118C70.3719 250.237 87.9522 252.424 101.023 263.02C113.28 272.954 118.112 287.517 122.757 301.605C123.333 303.334 123.893 305.046 124.486 306.742Z" fill="#3292A6"/>
<path d="M662.862 25.3218H381.442V306.742H662.862V25.3218Z" fill="#3F3D56"/>
<path d="M517.066 45.6655C517.065 61.5205 512.869 77.0929 504.904 90.8018C496.938 104.511 485.488 115.868 471.714 123.721C457.94 131.574 442.334 135.642 426.48 135.513C410.625 135.385 395.087 131.063 381.442 122.988V25.3218H514.744C516.295 31.9916 517.075 38.8177 517.066 45.6655V45.6655Z" fill="#3292A6"/>
<path d="M589.964 155.86C619.926 155.86 644.214 131.572 644.214 101.61C644.214 71.6491 619.926 47.3608 589.964 47.3608C560.003 47.3608 535.715 71.6491 535.715 101.61C535.715 131.572 560.003 155.86 589.964 155.86Z" fill="#3292A6"/>
<path d="M467.903 255.883C489.437 255.883 506.895 238.425 506.895 216.891C506.895 195.356 489.437 177.899 467.903 177.899C446.368 177.899 428.911 195.356 428.911 216.891C428.911 238.425 446.368 255.883 467.903 255.883Z" fill="#3292A6"/>
<path d="M662.862 260.629V306.742H607.07C604.701 299.324 604.607 291.367 606.8 283.896C608.992 276.424 613.372 269.781 619.374 264.82C625.376 259.859 632.725 256.809 640.476 256.062C648.227 255.316 656.024 256.906 662.862 260.629H662.862Z" fill="#3292A6"/>
<path d="M566.23 225.367C571.848 225.367 576.402 220.813 576.402 215.195C576.402 209.578 571.848 205.024 566.23 205.024C560.612 205.024 556.058 209.578 556.058 215.195C556.058 220.813 560.612 225.367 566.23 225.367Z" fill="#3292A6"/>
<path d="M1046 25.3218H764.58V306.742H1046V25.3218Z" fill="#3F3D56"/>
<path d="M901.9 25.3218V140.602H764.58V147.383H908.681V25.3218H901.9Z" fill="#3292A6"/>
<path d="M1034.35 306.742L1046 290.178V278.396L1026.06 306.742H1034.35ZM987.054 185.392L924.65 274.141L971.017 306.742H982.799L934.093 272.497L988.699 194.835L1046 235.132V226.842L987.054 185.392Z" fill="#3292A6"/>
<path d="M883.251 174.152L847.294 210.11L883.251 246.067L919.209 210.11L883.251 174.152ZM856.872 210.11L883.251 183.731L909.63 210.11L883.251 236.488L856.872 210.11Z" fill="#3292A6"/>
<path d="M137.934 51.0867C152.041 51.0867 163.477 39.6506 163.477 25.5434C163.477 11.4361 152.041 0 137.934 0C123.827 0 112.391 11.4361 112.391 25.5434C112.391 39.6506 123.827 51.0867 137.934 51.0867Z" fill="#F2F2F2"/>
<path d="M532.579 51.0867C546.686 51.0867 558.122 39.6506 558.122 25.5434C558.122 11.4361 546.686 0 532.579 0C518.472 0 507.035 11.4361 507.035 25.5434C507.035 39.6506 518.472 51.0867 532.579 51.0867Z" fill="#F2F2F2"/>
<path d="M909.343 51.0867C923.45 51.0867 934.886 39.6506 934.886 25.5434C934.886 11.4361 923.45 0 909.343 0C895.236 0 883.8 11.4361 883.8 25.5434C883.8 39.6506 895.236 51.0867 909.343 51.0867Z" fill="#F2F2F2"/>
<path d="M506.397 174.333C519.799 174.333 530.663 163.469 530.663 150.067C530.663 136.665 519.799 125.801 506.397 125.801C492.995 125.801 482.131 136.665 482.131 150.067C482.131 163.469 492.995 174.333 506.397 174.333Z" fill="#FFB8B8"/>
<path d="M493.625 161.562C493.625 161.562 500.011 194.768 497.457 201.154C494.902 207.54 533.217 198.599 533.217 198.599C533.217 198.599 525.554 165.393 526.831 157.73C528.109 150.067 493.625 161.562 493.625 161.562Z" fill="#FFB8B8"/>
<path d="M451.479 276.507L454.033 310.99L466.71 365.146L470.636 379.957L477.022 356.968L470.636 304.604L468.467 281.029L451.479 276.507Z" fill="#FFB8B8"/>
<path d="M585.581 271.398V307.159C585.581 307.159 581.75 353.137 574.087 364.631C566.424 376.126 563.869 318.653 563.869 318.653L569.874 276.507L585.581 271.398Z" fill="#FFB8B8"/>
<path d="M471.913 382.512C471.913 382.512 465.528 390.175 470.636 468.082C475.745 545.989 468.082 602.184 484.685 602.184C484.685 602.184 479.576 618.788 493.625 620.065C507.674 621.342 514.06 622.619 515.337 618.788C516.614 614.956 519.169 597.076 515.337 597.076C515.337 597.076 515.337 602.184 517.891 581.75C520.446 561.315 520.446 464.25 526.832 451.479L547.266 498.734C547.266 498.734 547.266 520.446 551.098 530.663C554.929 540.88 561.315 599.63 561.315 599.63L560.038 608.57C560.038 608.57 590.69 613.679 591.967 608.57C593.244 603.462 593.244 595.799 591.967 593.244C590.69 590.69 590.69 590.69 593.244 585.581C595.799 580.473 595.799 576.641 594.521 572.81C593.244 568.978 593.244 485.962 593.244 485.962C593.244 485.962 590.69 385.066 575.364 379.957C560.038 374.849 471.913 382.512 471.913 382.512Z" fill="#2F2E41"/>
<path d="M488.517 609.847L478.299 627.728C478.299 627.728 462.335 621.981 465.527 636.668C492.987 638.584 512.144 636.029 512.144 636.029C512.144 636.029 518.53 638.584 519.807 634.752C521.084 630.921 516.614 617.51 512.783 617.51C508.951 617.51 488.517 609.847 488.517 609.847Z" fill="#2F2E41"/>
<path d="M562.592 604.739C562.592 604.739 552.375 627.728 556.206 629.005C560.038 630.282 594.521 635.391 597.076 636.668C599.63 637.945 612.402 639.222 613.679 631.559C614.956 623.896 607.293 621.342 607.293 621.342C607.293 621.342 593.244 618.788 589.413 606.016C585.581 593.244 562.592 604.739 562.592 604.739Z" fill="#2F2E41"/>
<path d="M535.772 194.768C535.772 194.768 501.288 188.382 493.625 194.768C485.962 201.154 454.033 213.926 454.033 220.311C454.033 226.697 470.636 289.278 470.636 289.278C470.636 289.278 461.696 383.789 470.636 386.343C479.576 388.897 494.902 381.234 512.783 390.175C530.663 399.115 581.75 382.512 581.75 382.512C581.75 382.512 562.592 300.773 567.701 285.447C572.81 270.121 576.641 217.757 576.641 217.757C576.641 217.757 554.929 194.768 535.772 194.768Z" fill="#322A78"/>
<path d="M462.973 216.48L454.033 219.034C454.033 219.034 434.875 279.061 442.538 281.615C450.201 284.17 471.913 289.278 474.468 289.278C477.022 289.278 462.973 216.48 462.973 216.48Z" fill="#322A78"/>
<path d="M556.206 210.094L576.641 217.757C576.641 217.757 603.462 267.567 597.076 273.952C590.69 280.338 562.592 286.724 562.592 286.724L556.206 210.094Z" fill="#322A78"/>
<path d="M505.66 120.095C503.642 119.729 501.567 119.821 499.59 120.363C498.007 121.064 496.549 122.02 495.276 123.193C492.965 125.034 490.497 126.67 487.9 128.08C485.83 129.203 483.606 130.243 482.161 132.102C481.478 133.042 480.932 134.075 480.541 135.168C478.052 141.525 477.383 148.449 478.609 155.164C478.747 156.119 479.034 157.045 479.46 157.91C480.787 160.356 483.719 161.32 486.189 162.602C490.878 165.036 494.432 169.134 498.278 172.757C499.707 174.183 501.312 175.42 503.055 176.438C508.541 179.429 515.248 178.453 521.407 177.395C521.843 177.395 522.275 177.307 522.678 177.139C523.08 176.97 523.446 176.724 523.753 176.413C524.059 176.103 524.302 175.735 524.466 175.33C524.63 174.926 524.712 174.493 524.708 174.057L529.569 152.191C530.45 148.951 530.87 145.603 530.815 142.246C530.476 136.938 527.602 129.586 523.707 125.815C519.168 121.422 511.593 120.723 505.66 120.095Z" fill="#2F2E41"/>
<path d="M341.31 618.048C346.876 618.048 351.389 613.535 351.389 607.969C351.389 602.403 346.876 597.89 341.31 597.89C335.744 597.89 331.231 602.403 331.231 607.969C331.231 613.535 335.744 618.048 341.31 618.048Z" fill="#3292A6"/>
<path d="M341.31 637.085C335.551 637.085 329.922 635.377 325.134 632.178C320.346 628.979 316.614 624.431 314.41 619.111C312.207 613.791 311.63 607.937 312.754 602.289C313.877 596.641 316.65 591.453 320.722 587.381C324.794 583.309 329.982 580.536 335.63 579.412C341.278 578.289 347.132 578.866 352.452 581.069C357.773 583.273 362.32 587.005 365.519 591.793C368.718 596.581 370.426 602.21 370.426 607.969C370.417 615.688 367.347 623.089 361.889 628.548C356.43 634.006 349.029 637.076 341.31 637.085ZM341.31 581.093C335.994 581.093 330.798 582.669 326.378 585.622C321.959 588.575 318.514 592.773 316.48 597.684C314.445 602.595 313.913 607.999 314.95 613.212C315.987 618.426 318.547 623.215 322.306 626.973C326.064 630.732 330.853 633.292 336.067 634.329C341.28 635.366 346.684 634.834 351.595 632.799C356.506 630.765 360.704 627.32 363.657 622.901C366.61 618.481 368.186 613.285 368.186 607.969C368.178 600.843 365.344 594.012 360.306 588.974C355.267 583.935 348.436 581.101 341.31 581.093V581.093Z" fill="#2F2E41"/>
<path d="M831.742 619.325C837.309 619.325 841.821 614.812 841.821 609.246C841.821 603.68 837.309 599.167 831.742 599.167C826.176 599.167 821.664 603.68 821.664 609.246C821.664 614.812 826.176 619.325 831.742 619.325Z" fill="#3292A6"/>
<path d="M831.742 638.362C825.984 638.362 820.354 636.655 815.566 633.455C810.778 630.256 807.046 625.709 804.843 620.388C802.639 615.068 802.062 609.214 803.186 603.566C804.309 597.918 807.082 592.73 811.154 588.658C815.226 584.586 820.414 581.813 826.062 580.69C831.71 579.566 837.564 580.143 842.885 582.346C848.205 584.55 852.752 588.282 855.951 593.07C859.151 597.858 860.858 603.488 860.858 609.246C860.85 616.966 857.779 624.366 852.321 629.825C846.863 635.283 839.462 638.354 831.742 638.362V638.362ZM831.742 582.37C826.427 582.37 821.23 583.946 816.811 586.899C812.391 589.853 808.946 594.05 806.912 598.961C804.878 603.872 804.345 609.276 805.382 614.489C806.419 619.703 808.979 624.492 812.738 628.251C816.497 632.009 821.286 634.569 826.499 635.606C831.713 636.643 837.116 636.111 842.027 634.077C846.938 632.042 851.136 628.598 854.089 624.178C857.042 619.758 858.619 614.562 858.619 609.246C858.611 602.121 855.776 595.289 850.738 590.251C845.699 585.212 838.868 582.378 831.742 582.37V582.37Z" fill="#2F2E41"/>
<path d="M831.742 563.129C837.309 563.129 841.821 558.617 841.821 553.051C841.821 547.485 837.309 542.972 831.742 542.972C826.176 542.972 821.664 547.485 821.664 553.051C821.664 558.617 826.176 563.129 831.742 563.129Z" fill="#3292A6"/>
<path d="M831.742 582.167C825.984 582.167 820.354 580.459 815.566 577.26C810.778 574.06 807.046 569.513 804.843 564.193C802.639 558.873 802.062 553.018 803.186 547.37C804.309 541.722 807.082 536.535 811.154 532.463C815.226 528.391 820.414 525.618 826.062 524.494C831.71 523.371 837.564 523.947 842.885 526.151C848.205 528.355 852.752 532.087 855.951 536.875C859.151 541.663 860.858 547.292 860.858 553.051C860.85 560.77 857.779 568.171 852.321 573.629C846.863 579.088 839.462 582.158 831.742 582.167V582.167ZM831.742 526.174C826.427 526.174 821.23 527.751 816.811 530.704C812.391 533.657 808.946 537.855 806.912 542.766C804.878 547.677 804.345 553.081 805.382 558.294C806.419 563.508 808.979 568.296 812.738 572.055C816.497 575.814 821.286 578.374 826.499 579.411C831.713 580.448 837.116 579.915 842.027 577.881C846.938 575.847 851.136 572.402 854.089 567.982C857.042 563.563 858.619 558.366 858.619 553.051C858.611 545.925 855.776 539.094 850.738 534.055C845.699 529.017 838.868 526.183 831.742 526.174Z" fill="#2F2E41"/>
</g>
<defs>
<clipPath id="clip0">
<rect width="1046" height="638.584" fill="white"/>
</clipPath>
</defs>
</svg>
