<svg width="950" height="662" viewBox="0 0 950 662" fill="none" xmlns="http://www.w3.org/2000/svg">
<g clip-path="url(#clip0)">
<path d="M95.13 112.52C120.806 112.52 141.62 91.7057 141.62 66.03C141.62 40.3543 120.806 19.54 95.13 19.54C69.4543 19.54 48.64 40.3543 48.64 66.03C48.64 91.7057 69.4543 112.52 95.13 112.52Z" fill="#3292A6"/>
<path opacity="0.1" d="M89.45 160.67C108.97 204.76 84.07 255.53 54.76 293.76C44.95 306.58 34.12 320.02 32.76 336.1C31.12 355.77 44.44 373.85 60.24 385.67C89.06 407.21 128.42 413.87 162.72 403C192.36 393.61 217.28 372.4 247.18 363.85C297.18 349.53 350.18 373.27 393 402.85C423.31 423.76 455.77 449.24 492.31 444.76C518.02 441.61 539.84 423.56 554.65 402.31C561.8 392.05 568.02 380.55 578.43 373.63C584.62 369.51 591.89 367.33 599.16 365.77C665.55 351.58 736.01 386.21 801.52 368.4C845.77 356.4 881.05 321.4 902.99 281.13C924.93 240.86 935.17 195.39 943.7 150.34C949.76 118.34 954.79 83.77 940.86 54.34C926.12 23.18 892 4.29 857.71 0.750002C823.42 -2.79 789.03 6.98 757.44 20.76C717.97 38.02 679.28 62.18 636.2 62.26C606.86 62.32 578.88 51.06 550.83 42.47C503.93 28.12 455.16 20.99 406.56 14.41C360.03 8.11 313.04 2.25 266.23 5.97C233.11 8.6 203.86 21.26 171.72 27.12C150.77 30.94 129.72 28.12 109.16 34.52C83.84 42.44 57.8 60.79 56.4 89.69C55.08 117.2 79.1 137.28 89.45 160.67Z" fill="#3292A6"/>
<path opacity="0.5" d="M860.943 60.695H856.163C856.618 60.7199 857.073 60.6518 857.5 60.4949C857.927 60.338 858.318 60.0957 858.649 59.7826C858.98 59.4696 859.243 59.0924 859.423 58.6741C859.603 58.2559 859.696 57.8053 859.696 57.35C859.696 56.8947 859.603 56.4441 859.423 56.0259C859.243 55.6076 858.98 55.2304 858.649 54.9174C858.318 54.6043 857.927 54.3619 857.5 54.2051C857.073 54.0482 856.618 53.9801 856.163 54.005H817.443C816.587 54.0518 815.782 54.4246 815.193 55.0468C814.604 55.669 814.276 56.4932 814.276 57.35C814.276 58.2068 814.604 59.031 815.193 59.6532C815.782 60.2754 816.587 60.6482 817.443 60.695H822.223C821.768 60.6701 821.313 60.7382 820.886 60.8951C820.458 61.0519 820.067 61.2943 819.737 61.6074C819.406 61.9204 819.143 62.2976 818.963 62.7158C818.783 63.1341 818.69 63.5847 818.69 64.04C818.69 64.4953 818.783 64.9459 818.963 65.3641C819.143 65.7824 819.406 66.1596 819.737 66.4726C820.067 66.7857 820.458 67.028 820.886 67.1849C821.313 67.3418 821.768 67.4099 822.223 67.385H815.533C815.078 67.3601 814.623 67.4282 814.196 67.5851C813.768 67.7419 813.377 67.9843 813.047 68.2974C812.716 68.6104 812.453 68.9876 812.273 69.4058C812.093 69.8241 812 70.2747 812 70.73C812 71.1853 812.093 71.6359 812.273 72.0541C812.453 72.4724 812.716 72.8496 813.047 73.1626C813.377 73.4757 813.768 73.7181 814.196 73.8749C814.623 74.0318 815.078 74.0999 815.533 74.075H854.253C854.708 74.0999 855.163 74.0318 855.59 73.8749C856.017 73.7181 856.408 73.4757 856.739 73.1626C857.07 72.8496 857.333 72.4724 857.513 72.0541C857.693 71.6359 857.786 71.1853 857.786 70.73C857.786 70.2747 857.693 69.8241 857.513 69.4058C857.333 68.9876 857.07 68.6104 856.739 68.2974C856.408 67.9843 856.017 67.7419 855.59 67.5851C855.163 67.4282 854.708 67.3601 854.253 67.385H860.943C861.798 67.3382 862.604 66.9654 863.193 66.3432C863.782 65.721 864.11 64.8968 864.11 64.04C864.11 63.1832 863.782 62.359 863.193 61.7368C862.604 61.1146 861.798 60.7418 860.943 60.695V60.695Z" fill="white"/>
<path d="M601.9 199.93C597.63 188.8 586.62 162.64 579.37 167.83C570.21 174.39 588.53 203.37 588.53 203.37C589.05 208.69 578.75 219.76 573.23 225.28C573.23 224.84 573.23 224.59 573.23 224.59C573.177 224.8 573.097 225.002 572.99 225.19L572.53 224.94C572.407 225.381 572.185 225.788 571.88 226.13C571.88 225.38 571.83 224.94 571.83 224.94C570.77 229.43 552.27 235.12 552.27 235.12C552.27 235.12 551.77 235.12 550.91 235.12C545.77 235.12 532.39 233.96 526.19 224.04C522.983 218.666 518.881 213.88 514.06 209.89C512.409 208.596 510.404 207.836 508.31 207.71C491.18 206.61 477.31 197.94 474.54 196.09L474.03 195.74L473.92 196.06C473.27 195.13 472.64 194.14 472.05 193.12L471.75 192.57C475.896 190.489 479.385 187.299 481.83 183.356C484.275 179.413 485.58 174.87 485.6 170.23C485.6 170.06 485.6 169.88 485.6 169.71C487.107 167.105 487.9 164.149 487.9 161.14V158.14L491.81 154.66C493.6 153.07 495.45 151.39 496.36 149.2C496.725 148.314 496.889 147.357 496.84 146.4C496.928 145.58 496.805 144.751 496.483 143.991C496.161 143.232 495.65 142.567 495 142.06C492 139.99 487 142.06 484.83 139.18C483.83 137.88 484.01 136.11 483.52 134.58C482.52 131.47 478.92 129.79 475.59 129.74C472.26 129.69 469.07 130.9 465.87 131.81C459.147 133.719 452.131 134.376 445.17 133.75C443.287 133.415 441.355 133.483 439.5 133.95C438.367 134.418 437.361 135.147 436.561 136.076C435.762 137.005 435.193 138.11 434.9 139.3C434.653 140.194 434.505 141.113 434.46 142.04C431.67 145.187 430.127 149.245 430.12 153.45V161.14C430.126 165.245 431.598 169.214 434.27 172.33C434.585 175.948 435.685 179.455 437.494 182.605C439.302 185.755 441.775 188.473 444.74 190.57C444.74 190.77 444.74 190.973 444.74 191.18L444.87 191.26C444.708 193.644 444.34 196.01 443.77 198.33V197.82C443.77 197.82 429.77 205.27 414.77 205.45H413.12C410.161 205.35 407.284 206.429 405.12 208.45C400.68 212.63 392.9 219.24 388.12 219.24C387.12 219.24 361.88 224.17 357.7 224.99L349.89 217.34L349.65 217.79L349.19 217.34C348.336 217.406 347.487 217.53 346.65 217.71C342.65 212.97 334.65 201.95 332.8 187.16C332.8 187.16 350.07 167.49 343.72 149.16C338.3 133.54 323.37 167.02 319.13 177.11C318.388 178.871 318.296 180.838 318.87 182.66L332.9 227.88C331.564 231.384 331.181 235.18 331.79 238.88H331.63L341.85 251.99C341.85 251.99 349.54 255.27 361.57 255.21C370.387 255.224 379.125 253.548 387.31 250.27H389.68L389.23 250.44H401.4L409.14 273.85C408.88 275.98 405.14 305.71 402.14 312.36C401.25 314.582 400.847 316.969 400.96 319.36C401.118 323.954 401.867 328.508 403.19 332.91L409.97 332.66L409.71 333.19C403.97 344.96 394.38 365.93 388.71 385.53L378.84 405.53L386.24 495.23H386.54L387.11 495.32C387.91 495.44 389.11 495.62 390.69 495.82L390.11 496.82L373.8 523.82C373.8 523.82 362.17 547.63 387.9 543.14C387.9 543.14 397.41 540.38 401.29 524.14L418.21 508.27C418.21 508.27 419 497.73 414.21 493.52C413.91 488.65 413.15 474.43 414.32 471.01C415.73 466.87 408.32 419.26 408.32 419.26C408.32 419.26 435.1 363.71 451.32 362.33C452.509 362.246 453.703 362.403 454.83 362.79C468.16 367.13 484.31 399.36 489.06 409.39L489.28 409.85V409.94L489.46 410.33V410.44L489.62 410.78V410.87L489.76 411.18V411.25L489.88 411.5V411.6L489.97 411.79V411.87L490.03 412.01V412.09V412.18L490.08 412.3L492.19 474.75L492.4 474.86H492.5L492.32 476.15L491.4 482.6C491.4 482.6 503.03 507.1 502.32 510.2C501.61 513.3 510.07 525.73 522.05 522.28C534.03 518.83 526.9 499.38 526.9 499.38L515.36 475.6L514.85 474.54C516 473.835 517.084 473.028 518.09 472.13C518.09 472.13 514.57 446.6 518.09 441.08C521.61 435.56 522.67 410.37 522.67 410.37C522.67 410.37 520.2 393.12 515.97 385.53L498.25 322.28C503.56 327.22 507.69 329.15 511.14 329.02H511.71C513.227 329.049 514.724 328.676 516.05 327.94C516.762 327.538 517.432 327.066 518.05 326.53C518.168 326.428 518.278 326.318 518.38 326.2V326.2C523.31 322.06 512.74 305.84 506.75 296.2C500.98 286.9 508.93 261.63 509.53 259.75C510.064 259.358 510.637 259.023 511.24 258.75C512.48 258.219 513.811 257.93 515.16 257.9C520.9 258.1 527.96 261.4 536.7 263.06C542.774 264.093 548.929 264.572 555.09 264.49H555.45C557.9 264.49 560.12 264.44 561.92 264.37C563.562 264.305 565.169 263.871 566.62 263.1V263.1C567.864 262.375 568.99 261.464 569.96 260.4L585.3 243.07L584.9 243.26C585.643 241.295 585.643 239.125 584.9 237.16L601.11 209.16C601.928 207.78 602.424 206.234 602.561 204.635C602.698 203.037 602.472 201.429 601.9 199.93V199.93Z" fill="url(#paint0_linear)"/>
<path d="M419.78 505.9L403.45 521.55C399.71 537.55 390.52 540.26 390.52 540.26C365.69 544.68 376.91 521.26 376.91 521.26L392.66 494.61L394.6 491.32C394.6 491.32 405.83 487.92 413.31 489.96C414.254 490.219 415.127 490.691 415.86 491.34C420.55 495.41 419.78 505.9 419.78 505.9Z" fill="#444176"/>
<path d="M520.47 519.85C508.9 523.25 500.74 511.01 501.47 507.94C502.2 504.87 490.9 480.76 490.9 480.76L491.78 474.4L492.6 468.51L511.6 469.87L513.39 473.63L524.53 497.08C524.53 497.08 532.04 516.45 520.47 519.85Z" fill="#444176"/>
<path opacity="0.1" d="M416.04 494C414.25 497.07 399.74 495.52 392.67 494.56L394.61 491.27C394.61 491.27 405.84 487.87 413.32 489.91C414.264 490.169 415.137 490.641 415.87 491.29C415.97 492.95 416.04 494 416.04 494Z" fill="black"/>
<path opacity="0.1" d="M513.41 473.61C503.68 480.09 493.32 475.19 491.76 474.38L492.58 468.49L511.58 469.85L513.41 473.61Z" fill="black"/>
<path d="M516.05 439.57C512.65 445.01 516.05 470.19 516.05 470.19C504.82 480.4 491.56 472.91 491.56 472.91L489.56 411.34C489.56 411.34 467.45 360.65 451.8 362.01C436.15 363.37 410.3 418.14 410.3 418.14C410.3 418.14 417.44 465.08 416.08 469.14C414.72 473.2 416.08 492.95 416.08 492.95C413.7 497.03 388.87 492.95 388.87 492.95L381.73 404.5L391.21 384.76C396.66 365.44 405.92 344.76 411.46 333.16C414.21 327.39 416.05 323.87 416.05 323.87L434.15 320.1L492.9 307.92L514.01 384.76C518.09 392.24 520.47 409.25 520.47 409.25C520.47 409.25 519.45 434.13 516.05 439.57Z" fill="#565387"/>
<g opacity="0.1">
<path opacity="0.1" d="M497 472.91L495 411.34C495 411.34 472.89 360.65 457.24 362.01C456.54 362.078 455.852 362.233 455.19 362.47C470.45 367.54 489.56 411.34 489.56 411.34L491.56 472.91C495.732 475.036 500.436 475.894 505.09 475.38C502.269 475.041 499.53 474.204 497 472.91V472.91Z" fill="black"/>
<path opacity="0.1" d="M394.27 492.98L387.13 404.53L396.65 384.76C402.1 365.44 411.36 344.76 416.9 333.16C419.65 327.39 421.49 323.87 421.49 323.87L439.59 320.1L493.22 308.95L492.93 307.88L434.15 320.1L416.05 323.87C416.05 323.87 414.21 327.39 411.46 333.16C405.9 344.76 396.66 365.48 391.21 384.76L381.69 404.49L388.83 492.94C388.83 492.94 402.39 495.17 410.43 494.68C405.018 494.386 399.625 493.819 394.27 492.98V492.98Z" fill="black"/>
</g>
<path d="M352.9 218.97C352.9 218.97 333.51 219.97 336.23 240.4L341.67 241.08L349.83 232.24L353.91 224.76V223.06L352.9 218.97Z" fill="#CED2DF"/>
<path opacity="0.1" d="M352.9 218.97C352.9 218.97 333.51 219.97 336.23 240.4L341.67 241.08L349.83 232.24L353.91 224.76V223.06L352.9 218.97Z" fill="black"/>
<path d="M568.61 226.45C568.61 226.45 584.61 234.95 580.52 244.82L575.42 246.82L568.62 243.08L567.62 234.24L568.3 228.12L568.61 226.45Z" fill="#CED2DF"/>
<path opacity="0.1" d="M568.61 226.45C568.61 226.45 584.61 234.95 580.52 244.82L575.42 246.82L568.62 243.08L567.62 234.24L568.3 228.12L568.61 226.45Z" fill="black"/>
<path d="M465.88 138.68H452.27C440.622 138.68 431.18 148.122 431.18 159.77C431.18 171.418 440.622 180.86 452.27 180.86H465.88C477.528 180.86 486.97 171.418 486.97 159.77C486.97 148.122 477.528 138.68 465.88 138.68Z" fill="#88455E"/>
<path d="M352.77 221.86L340.86 240.86L339.86 237.48L323.68 184.76C323.127 182.963 323.215 181.029 323.93 179.29C328.02 169.35 342.44 136.29 347.67 151.74C353.79 169.74 337.12 189.16 337.12 189.16C339.02 204.92 347.87 216.34 351.35 220.3C352.23 221.33 352.77 221.86 352.77 221.86Z" fill="#EC8C9C"/>
<path d="M566.06 230.02C566.06 230.02 584.77 212.33 584.06 205.19C584.06 205.19 566.37 176.62 575.22 170.19C582.22 165.07 592.85 190.87 596.97 201.84C597.515 203.301 597.733 204.864 597.611 206.419C597.488 207.973 597.027 209.482 596.26 210.84L573.9 250.43L566.06 230.02Z" fill="#EC8C9C"/>
<path d="M444.95 180.7C444.95 180.7 448.35 202.47 438.49 210.64C428.63 218.81 466.73 218.76 466.73 218.76L480.34 206.17C480.34 206.17 464.69 191.54 469.45 180.66L444.95 180.7Z" fill="#EC8C9C"/>
<path opacity="0.1" d="M444.27 205.53C444.27 205.53 458.9 216.42 473.52 204.17L497.33 253.5L495.97 313.71C495.97 313.71 446.64 339.22 426.23 323.58C405.82 307.94 422.83 299.77 422.83 299.77L418.07 253.51L423.17 223.57C423.17 223.57 432.35 209.28 433.04 209.28C433.73 209.28 444.27 205.53 444.27 205.53Z" fill="black"/>
<path d="M444.27 204.85C444.27 204.85 458.9 215.76 473.53 203.49L497.34 252.82L495.98 313.03C495.98 313.03 446.65 338.54 426.24 322.9C405.83 307.26 422.84 299.09 422.84 299.09L418.08 252.83L423.18 222.89C423.18 222.89 432.36 208.6 433.05 208.6C433.74 208.6 444.27 204.85 444.27 204.85Z" fill="#EBF1F6"/>
<path opacity="0.1" d="M444.27 199.76C444.27 199.76 430.4 207.66 415.34 207.27C413.927 207.226 412.52 207.463 411.2 207.968C409.88 208.472 408.673 209.235 407.65 210.21C403.36 214.33 395.85 220.85 391.2 220.85C390.2 220.85 361.26 226.63 361.26 226.63L353.61 218.98C353.61 218.98 342.21 241.26 336.77 240.24L346.64 253.17C346.64 253.17 365.35 261.33 389.84 251.47H404.13L411.61 274.6C411.61 274.6 407.87 305.9 404.81 312.7C401.75 319.5 405.81 332.77 405.81 332.77L432.68 331.77C432.68 331.77 434.04 318.5 436.08 316.77C438.12 315.04 428.94 256.56 428.94 256.56C428.94 256.56 422.82 223.56 445.27 211.66L444.27 199.76Z" fill="black"/>
<path opacity="0.1" d="M434.14 320.14C433.15 324.176 432.445 328.276 432.03 332.41L411.46 333.19C414.21 327.42 416.05 323.9 416.05 323.9L434.14 320.14Z" fill="black"/>
<path opacity="0.1" d="M352.77 221.86L340.86 240.86L339.86 237.48C344.23 233.14 349.35 224.07 351.39 220.29C352.23 221.33 352.77 221.86 352.77 221.86Z" fill="black"/>
<path d="M444.27 199.76C444.27 199.76 429.71 207.66 414.66 207.27C413.247 207.226 411.84 207.463 410.52 207.968C409.2 208.472 407.993 209.235 406.97 210.21C402.68 214.33 395.17 220.85 390.52 220.85C389.52 220.85 360.58 226.63 360.58 226.63L352.9 218.97C352.9 218.97 341.5 241.25 336.06 240.23L345.93 253.16C345.93 253.16 364.64 261.32 389.13 251.46H403.42L410.9 274.58C410.9 274.58 407.16 305.88 404.1 312.68C401.04 319.48 405.1 332.75 405.1 332.75L431.97 331.75C431.97 331.75 433.33 318.48 435.37 316.75C437.41 315.02 428.23 256.54 428.23 256.54C428.23 256.54 422.11 223.54 444.56 211.64L444.27 199.76Z" fill="#CED2DF"/>
<path opacity="0.1" d="M473.53 197.7C473.53 197.7 487.41 208.28 505.94 209.5C507.967 209.627 509.906 210.378 511.49 211.65C516.163 215.615 520.124 220.35 523.2 225.65C530.68 237.9 549.05 236.54 549.05 236.54C549.05 236.54 566.91 230.93 567.93 226.54C567.93 226.54 568.44 250.54 579.67 244.74L564.9 261.76C563.969 262.835 562.828 263.708 561.546 264.326C560.265 264.943 558.871 265.292 557.45 265.35C551.9 265.57 542.26 265.64 534.12 264.06C521.87 261.68 513.03 255.9 506.57 261C506.57 261 498.07 287.53 503.85 297.06C509.63 306.59 519.85 322.57 515.08 326.66C510.31 330.75 504.53 330.4 495.01 320.54C485.49 310.68 484.46 294.01 484.46 294.01L486.84 251.15C486.84 251.15 477.66 218.83 468.84 212.37L473.53 197.7Z" fill="black"/>
<path opacity="0.1" d="M581.02 244.31L566.21 261.4C565.226 262.534 564.008 263.441 562.64 264.06V264.06C561.424 264.609 560.113 264.918 558.78 264.97C553.23 265.2 543.59 265.27 535.45 263.68C523.99 261.45 515.51 256.25 509.17 259.76C508.721 260.008 508.292 260.292 507.89 260.61C507.89 260.61 499.39 287.14 505.17 296.67C510.95 306.2 521.17 322.18 516.4 326.27C515.602 326.972 514.706 327.555 513.74 328C509.46 329.93 504.15 328.26 496.33 320.15C486.81 310.28 485.78 293.62 485.78 293.62L488.16 250.76C488.16 250.76 478.98 218.44 470.16 211.98L474.05 198.03C476.73 199.85 490.11 208.4 506.65 209.49C508.677 209.617 510.616 210.368 512.2 211.64C516.873 215.605 520.833 220.34 523.91 225.64C531.39 237.89 549.76 236.53 549.76 236.53C554.164 235.125 558.464 233.414 562.63 231.41V231.41C565.24 230.13 567.54 228.73 568.63 227.41C568.936 227.065 569.158 226.655 569.28 226.21C569.28 226.21 569.8 250.09 581.02 244.31Z" fill="black"/>
<path d="M580.34 244.65L565.54 261.76C564.726 262.699 563.751 263.485 562.66 264.08V264.08C561.262 264.839 559.709 265.267 558.12 265.33C552.57 265.56 542.93 265.63 534.79 264.04C523.74 261.89 515.45 256.97 509.2 259.78C508.486 260.091 507.814 260.491 507.2 260.97C507.2 260.97 498.7 287.5 504.48 297.03C510.26 306.56 520.48 322.54 515.71 326.63C515.093 327.161 514.423 327.627 513.71 328.02C509.31 330.45 503.87 329.02 495.62 320.51C486.1 310.64 485.07 293.98 485.07 293.98L487.45 251.12C487.45 251.12 478.27 218.8 469.45 212.34L473.53 197.71L474.02 198.05C476.7 199.87 490.08 208.42 506.62 209.51C508.647 209.637 510.586 210.388 512.17 211.66C516.843 215.625 520.803 220.36 523.88 225.66C531.36 237.91 549.73 236.55 549.73 236.55C554.134 235.145 558.434 233.434 562.6 231.43V231.43C565.69 229.85 568.21 228.12 568.6 226.54C568.6 226.54 568.6 226.85 568.6 227.4C568.9 231.53 570.4 249.76 580.34 244.65Z" fill="#CED2DF"/>
<path opacity="0.1" d="M469.75 181.21H444.75C445.3 185.185 445.457 189.204 445.22 193.21C449.036 195.895 453.512 197.491 458.166 197.826C462.821 198.161 467.479 197.222 471.64 195.11C469.24 190.67 467.78 185.63 469.75 181.21Z" fill="black"/>
<path d="M459.92 197.36C473.633 197.36 484.75 186.243 484.75 172.53C484.75 158.817 473.633 147.7 459.92 147.7C446.207 147.7 435.09 158.817 435.09 172.53C435.09 186.243 446.207 197.36 459.92 197.36Z" fill="#EC8C9C"/>
<path opacity="0.1" d="M454.76 168.11C457.53 167.78 460.3 166.8 463.03 167.35C465.51 167.85 467.62 169.56 470.1 170.08C474.88 171.08 479.32 167.56 482.93 164.28L490.73 157.18C492.46 155.61 494.24 153.96 495.13 151.8C496.02 149.64 495.71 146.8 493.81 145.44C490.96 143.44 486.05 145.44 483.99 142.6C483.06 141.32 483.2 139.6 482.72 138.07C481.72 135.01 478.28 133.34 475.06 133.3C471.84 133.26 468.76 134.44 465.68 135.3C459.192 137.182 452.407 137.83 445.68 137.21C443.864 136.878 441.998 136.942 440.21 137.4C439.109 137.87 438.134 138.591 437.363 139.507C436.592 140.422 436.046 141.505 435.77 142.67C434.23 148.11 436.86 156.88 439.5 161.75C442.14 166.62 449.49 168.76 454.76 168.11Z" fill="black"/>
<path d="M454.76 167.43C457.53 167.1 460.3 166.12 463.03 166.67C465.51 167.17 467.62 168.88 470.1 169.4C474.88 170.4 479.32 166.88 482.93 163.6L490.73 156.5C492.46 154.93 494.24 153.28 495.13 151.12C496.02 148.96 495.71 146.12 493.81 144.76C490.96 142.76 486.05 144.76 483.99 141.92C483.06 140.64 483.2 138.92 482.72 137.39C481.72 134.33 478.28 132.66 475.06 132.62C471.84 132.58 468.76 133.76 465.68 134.62C459.192 136.502 452.407 137.15 445.68 136.53C443.864 136.198 441.998 136.262 440.21 136.72C439.109 137.19 438.134 137.911 437.363 138.827C436.592 139.742 436.046 140.825 435.77 141.99C434.23 147.43 436.86 156.2 439.5 161.07C442.14 165.94 449.49 168.03 454.76 167.43Z" fill="#88455E"/>
<path opacity="0.1" d="M411.45 274.76C411.45 274.76 416.89 275.44 419.61 278.84C422.33 282.24 427.09 283.26 427.09 283.26" fill="black"/>
<path opacity="0.1" d="M362.46 229.85C362.46 229.85 366.9 239.76 364.16 240.76C361.42 241.76 362.46 248.92 362.46 248.92" fill="black"/>
<g opacity="0.1">
<path opacity="0.1" d="M363.99 226.45C363.99 226.45 392.9 220.67 393.9 220.67C398.56 220.67 406.06 214.15 410.35 210.03C411.655 208.78 413.26 207.888 415.01 207.44H414.64C413.227 207.396 411.82 207.633 410.5 208.138C409.18 208.642 407.973 209.405 406.95 210.38C402.66 214.5 395.15 221.02 390.5 221.02C389.69 221.02 371.19 224.69 363.68 226.18L363.99 226.45Z" fill="black"/>
<path opacity="0.1" d="M444.31 201.19V199.92C437.355 203.466 429.871 205.861 422.15 207.01C429.811 206.328 437.303 204.361 444.31 201.19V201.19Z" fill="black"/>
<path opacity="0.1" d="M408.56 332.58C408.56 332.58 404.48 319.31 407.56 312.51C410.64 305.71 414.36 274.41 414.36 274.41L406.9 251.28H392.57L391.7 251.62H403.45L410.9 274.76C410.9 274.76 407.16 306.06 404.1 312.86C401.04 319.66 405.1 332.93 405.1 332.93L431.97 331.93V331.72L408.56 332.58Z" fill="black"/>
</g>
<g opacity="0.1">
<path opacity="0.1" d="M516.05 321.19C515.433 321.721 514.763 322.187 514.05 322.58C509.65 325.01 504.21 323.58 495.96 315.07C488.4 307.24 486.2 295.07 485.61 290.46L485.41 293.98C485.41 293.98 486.41 310.65 495.96 320.51C504.21 329.05 509.65 330.45 514.05 328.02C514.763 327.627 515.433 327.161 516.05 326.63C517.48 325.4 517.56 323.09 516.81 320.21C516.624 320.584 516.366 320.917 516.05 321.19V321.19Z" fill="black"/>
<path opacity="0.1" d="M575.53 245.16L565.9 256.29C565.086 257.229 564.111 258.015 563.02 258.61V258.61C561.622 259.369 560.069 259.797 558.48 259.86C552.93 260.09 543.29 260.16 535.15 258.57C524.1 256.42 515.81 251.5 509.56 254.31C508.846 254.621 508.174 255.021 507.56 255.5C507.56 255.5 502.07 272.64 502.91 284.31C503.56 273.4 507.56 260.94 507.56 260.94C508.174 260.461 508.846 260.061 509.56 259.75C515.82 256.94 524.1 261.86 535.15 264.01C543.29 265.59 552.92 265.52 558.48 265.3C560.069 265.237 561.622 264.809 563.02 264.05C564.108 263.464 565.084 262.688 565.9 261.76L580.71 244.67C579.944 245.147 579.077 245.44 578.178 245.525C577.279 245.61 576.372 245.485 575.53 245.16V245.16Z" fill="black"/>
</g>
<path d="M140.64 367.65C140.759 367.765 140.911 367.839 141.075 367.86C141.239 367.882 141.406 367.85 141.55 367.77C141.242 367.775 140.936 367.735 140.64 367.65V367.65Z" fill="url(#paint1_linear)"/>
<path opacity="0.1" d="M140.9 365.1C140.764 365.176 140.607 365.206 140.452 365.187C140.297 365.167 140.153 365.098 140.04 364.99C140.32 365.069 140.609 365.106 140.9 365.1V365.1Z" fill="black"/>
<path opacity="0.1" d="M183.38 394.52C183.38 394.52 196.82 420.99 192.75 429.14Z" fill="black"/>
<path opacity="0.1" d="M829.18 106.25C825.11 112.36 819.41 106.25 819.41 106.25C819.41 106.25 818.68 105.16 817.65 103.4L817.78 102.99C820.42 104.88 828.63 103.27 829.85 102.99C829.974 104.12 829.74 105.26 829.18 106.25V106.25Z" fill="black"/>
<path opacity="0.1" d="M760.55 207.06C760.55 207.06 769.03 214.63 770.7 217.97Z" fill="black"/>
<g opacity="0.1">
<path opacity="0.1" d="M829.99 103.76L829.74 103.81C829.31 116.32 820.63 145.71 820.63 145.71C820.63 151 814.93 159.15 814.93 159.15C814.93 159.15 791.31 195.4 786.01 200.29C780.71 205.18 782.75 214.95 782.75 214.95L782.8 215.05C782.64 211.76 783.04 206.66 786.41 203.54C791.7 198.65 815.33 162.4 815.33 162.4C815.33 162.4 821.03 154.25 821.03 148.96C821.03 149.02 831.62 113.18 829.99 103.76Z" fill="black"/>
<path opacity="0.1" d="M778.27 249.21C778.88 252.67 778.47 249.01 778.68 252.47C778.68 252.47 788.68 240.74 785.95 226.24C786.77 239.2 778.27 249.21 778.27 249.21Z" fill="black"/>
</g>
<path opacity="0.1" d="M469.79 661.52C705.986 661.52 897.46 643.128 897.46 620.44C897.46 597.752 705.986 579.36 469.79 579.36C233.594 579.36 42.12 597.752 42.12 620.44C42.12 643.128 233.594 661.52 469.79 661.52Z" fill="#3292A6"/>
<path d="M304.01 578.76C304.01 578.76 289.45 529.31 306.74 492.92C314.093 477.701 316.311 460.507 313.06 443.92C311.454 436.057 309.131 428.359 306.12 420.92" stroke="#535461" stroke-width="2" stroke-miterlimit="10"/>
<path d="M316.9 397.94C316.9 404 305.9 421.57 305.9 421.57C305.9 421.57 294.9 404 294.9 397.94C294.788 396.431 294.989 394.916 295.49 393.488C295.99 392.06 296.78 390.751 297.81 389.643C298.839 388.534 300.087 387.65 301.474 387.045C302.86 386.44 304.357 386.128 305.87 386.128C307.383 386.128 308.88 386.44 310.266 387.045C311.653 387.65 312.901 388.534 313.93 389.643C314.96 390.751 315.749 392.06 316.25 393.488C316.751 394.916 316.952 396.431 316.84 397.94H316.9Z" fill="#3292A6"/>
<path d="M335.01 431.5C331.72 436.59 312.96 445.37 312.96 445.37C312.96 445.37 313.3 424.66 316.59 419.57C317.32 418.249 318.314 417.092 319.51 416.171C320.706 415.25 322.079 414.585 323.543 414.218C325.007 413.851 326.531 413.789 328.02 414.036C329.51 414.283 330.932 414.834 332.199 415.655C333.466 416.476 334.55 417.548 335.385 418.806C336.22 420.064 336.786 421.48 337.05 422.966C337.314 424.453 337.269 425.977 336.918 427.445C336.567 428.913 335.917 430.294 335.01 431.5V431.5Z" fill="#3292A6"/>
<path d="M334.22 488.87C328.81 491.6 308.22 489.71 308.22 489.71C308.22 489.71 318.97 472 324.38 469.27C325.677 468.491 327.12 467.989 328.62 467.793C330.12 467.597 331.645 467.713 333.098 468.134C334.551 468.554 335.902 469.269 337.066 470.235C338.23 471.201 339.183 472.397 339.864 473.747C340.545 475.098 340.94 476.575 341.025 478.085C341.11 479.595 340.882 481.107 340.356 482.525C339.83 483.943 339.017 485.238 337.968 486.328C336.92 487.418 335.657 488.28 334.26 488.86L334.22 488.87Z" fill="#3292A6"/>
<path d="M323.85 532.13C318.98 535.73 298.32 537.36 298.32 537.36C298.32 537.36 305.92 518.09 310.8 514.48C313.148 513.053 315.946 512.557 318.642 513.089C321.338 513.621 323.737 515.143 325.367 517.355C326.998 519.567 327.741 522.309 327.451 525.042C327.161 527.774 325.858 530.299 323.8 532.12L323.85 532.13Z" fill="#3292A6"/>
<path d="M289.9 446.55C294.25 450.77 314.5 455.15 314.5 455.15C314.5 455.15 309.5 435.04 305.19 430.81C304.184 429.683 302.957 428.775 301.585 428.142C300.213 427.51 298.725 427.167 297.215 427.135C295.705 427.103 294.204 427.382 292.806 427.956C291.409 428.529 290.144 429.384 289.091 430.468C288.039 431.552 287.221 432.841 286.688 434.254C286.155 435.668 285.92 437.176 285.995 438.685C286.071 440.194 286.457 441.671 287.129 443.024C287.801 444.377 288.744 445.577 289.9 446.55Z" fill="#3292A6"/>
<path d="M278.43 497.31C283.84 500.04 304.43 498.15 304.43 498.15C304.43 498.15 293.72 480.44 288.31 477.76C285.745 476.695 282.872 476.64 280.268 477.606C277.664 478.571 275.521 480.486 274.271 482.966C273.02 485.446 272.754 488.307 273.525 490.975C274.297 493.643 276.049 495.92 278.43 497.35V497.31Z" fill="#3292A6"/>
<path d="M274.03 548.17C278.9 551.77 299.56 553.4 299.56 553.4C299.56 553.4 291.96 534.13 287.08 530.52C285.936 529.508 284.594 528.746 283.14 528.281C281.685 527.816 280.15 527.66 278.631 527.821C277.113 527.982 275.644 528.458 274.32 529.217C272.995 529.977 271.843 531.004 270.937 532.234C270.031 533.463 269.391 534.867 269.058 536.357C268.724 537.848 268.705 539.391 269 540.889C269.296 542.387 269.9 543.807 270.775 545.059C271.649 546.311 272.775 547.367 274.08 548.16L274.03 548.17Z" fill="#3292A6"/>
<path opacity="0.1" d="M316.9 397.94C316.9 404 305.9 421.57 305.9 421.57C305.9 421.57 294.9 404 294.9 397.94C294.788 396.431 294.989 394.916 295.49 393.488C295.99 392.06 296.78 390.751 297.81 389.643C298.839 388.534 300.087 387.65 301.474 387.045C302.86 386.44 304.357 386.128 305.87 386.128C307.383 386.128 308.88 386.44 310.266 387.045C311.653 387.65 312.901 388.534 313.93 389.643C314.96 390.751 315.749 392.06 316.25 393.488C316.751 394.916 316.952 396.431 316.84 397.94H316.9Z" fill="#3292A6"/>
<path opacity="0.1" d="M335.01 431.5C331.72 436.59 312.96 445.37 312.96 445.37C312.96 445.37 313.3 424.66 316.59 419.57C317.32 418.249 318.314 417.092 319.51 416.171C320.706 415.25 322.079 414.585 323.543 414.218C325.007 413.851 326.531 413.789 328.02 414.036C329.51 414.283 330.932 414.834 332.199 415.655C333.466 416.476 334.55 417.548 335.385 418.806C336.22 420.064 336.786 421.48 337.05 422.966C337.314 424.453 337.269 425.977 336.918 427.445C336.567 428.913 335.917 430.294 335.01 431.5V431.5Z" fill="#3292A6"/>
<path opacity="0.1" d="M334.22 488.87C328.81 491.6 308.22 489.71 308.22 489.71C308.22 489.71 318.97 472 324.38 469.27C325.677 468.491 327.12 467.989 328.62 467.793C330.12 467.597 331.645 467.713 333.098 468.134C334.551 468.554 335.902 469.269 337.066 470.235C338.23 471.201 339.183 472.397 339.864 473.747C340.545 475.098 340.94 476.575 341.025 478.085C341.11 479.595 340.882 481.107 340.356 482.525C339.83 483.943 339.017 485.238 337.968 486.328C336.92 487.418 335.657 488.28 334.26 488.86L334.22 488.87Z" fill="#3292A6"/>
<path opacity="0.1" d="M323.85 532.13C318.98 535.73 298.32 537.36 298.32 537.36C298.32 537.36 305.92 518.09 310.8 514.48C313.148 513.053 315.946 512.557 318.642 513.089C321.338 513.621 323.737 515.143 325.367 517.355C326.998 519.567 327.741 522.309 327.451 525.042C327.161 527.774 325.858 530.299 323.8 532.12L323.85 532.13Z" fill="#3292A6"/>
<path opacity="0.1" d="M289.9 446.55C294.25 450.77 314.5 455.15 314.5 455.15C314.5 455.15 309.5 435.04 305.19 430.81C304.184 429.683 302.957 428.775 301.585 428.142C300.213 427.51 298.725 427.167 297.215 427.135C295.705 427.103 294.204 427.382 292.806 427.956C291.409 428.529 290.144 429.384 289.091 430.468C288.039 431.552 287.221 432.841 286.688 434.254C286.155 435.668 285.92 437.176 285.995 438.685C286.071 440.194 286.457 441.671 287.129 443.024C287.801 444.377 288.744 445.577 289.9 446.55Z" fill="#3292A6"/>
<path opacity="0.1" d="M278.43 497.31C283.84 500.04 304.43 498.15 304.43 498.15C304.43 498.15 293.72 480.44 288.31 477.76C285.745 476.695 282.872 476.64 280.268 477.606C277.664 478.571 275.521 480.486 274.271 482.966C273.02 485.446 272.754 488.307 273.525 490.975C274.297 493.643 276.049 495.92 278.43 497.35V497.31Z" fill="#3292A6"/>
<path opacity="0.1" d="M274.03 548.17C278.9 551.77 299.56 553.4 299.56 553.4C299.56 553.4 291.96 534.13 287.08 530.52C285.936 529.508 284.594 528.746 283.14 528.281C281.685 527.816 280.15 527.66 278.631 527.821C277.113 527.982 275.644 528.458 274.32 529.217C272.995 529.977 271.843 531.004 270.937 532.234C270.031 533.463 269.391 534.867 269.058 536.357C268.724 537.848 268.705 539.391 269 540.889C269.296 542.387 269.9 543.807 270.775 545.059C271.649 546.311 272.775 547.367 274.08 548.16L274.03 548.17Z" fill="#3292A6"/>
<path d="M598.65 579.47C598.65 579.47 584.09 530.02 601.38 493.63C608.733 478.411 610.951 461.217 607.7 444.63C606.094 436.767 603.771 429.069 600.76 421.63" stroke="#535461" stroke-width="2" stroke-miterlimit="10"/>
<path d="M611.52 398.64C611.52 404.7 600.52 422.27 600.52 422.27C600.52 422.27 589.52 404.7 589.52 398.64C589.725 395.871 590.97 393.281 593.004 391.392C595.039 389.502 597.713 388.452 600.49 388.452C603.267 388.452 605.941 389.502 607.976 391.392C610.01 393.281 611.255 395.871 611.46 398.64H611.52Z" fill="#3292A6"/>
<path d="M629.66 432.2C626.37 437.29 607.61 446.07 607.61 446.07C607.61 446.07 607.95 425.36 611.24 420.27C611.97 418.949 612.964 417.792 614.16 416.871C615.356 415.95 616.729 415.285 618.193 414.918C619.657 414.551 621.181 414.489 622.671 414.736C624.16 414.983 625.582 415.534 626.849 416.355C628.116 417.176 629.2 418.248 630.035 419.506C630.87 420.764 631.436 422.18 631.7 423.666C631.964 425.153 631.919 426.677 631.568 428.145C631.217 429.613 630.567 430.994 629.66 432.2V432.2Z" fill="#3292A6"/>
<path d="M628.9 489.57C623.49 492.3 602.9 490.41 602.9 490.41C602.9 490.41 613.65 472.7 619.06 469.97C620.358 469.184 621.805 468.675 623.31 468.476C624.814 468.276 626.344 468.39 627.802 468.811C629.261 469.231 630.616 469.949 631.784 470.918C632.951 471.888 633.906 473.089 634.586 474.445C635.267 475.801 635.66 477.284 635.74 478.8C635.821 480.315 635.586 481.831 635.052 483.252C634.518 484.672 633.696 485.967 632.637 487.054C631.578 488.142 630.306 488.998 628.9 489.57V489.57Z" fill="#3292A6"/>
<path d="M618.49 532.83C613.62 536.43 592.96 538.06 592.96 538.06C592.96 538.06 600.56 518.79 605.44 515.18C607.788 513.753 610.586 513.257 613.282 513.789C615.978 514.321 618.377 515.843 620.007 518.055C621.638 520.267 622.381 523.009 622.091 525.742C621.801 528.474 620.498 530.999 618.44 532.82L618.49 532.83Z" fill="#3292A6"/>
<path d="M584.56 447.25C588.91 451.47 609.16 455.85 609.16 455.85C609.16 455.85 604.16 435.74 599.85 431.51C598.844 430.383 597.617 429.475 596.245 428.842C594.873 428.21 593.386 427.867 591.875 427.835C590.365 427.803 588.864 428.082 587.466 428.656C586.069 429.229 584.804 430.084 583.751 431.168C582.699 432.252 581.881 433.54 581.348 434.954C580.815 436.368 580.58 437.876 580.655 439.385C580.731 440.894 581.117 442.371 581.789 443.724C582.461 445.077 583.404 446.277 584.56 447.25V447.25Z" fill="#3292A6"/>
<path d="M573.07 498.01C578.48 500.74 599.07 498.85 599.07 498.85C599.07 498.85 588.32 481.14 582.91 478.41C580.345 477.345 577.472 477.29 574.868 478.255C572.264 479.221 570.121 481.136 568.871 483.616C567.62 486.096 567.354 488.957 568.125 491.625C568.897 494.293 570.649 496.57 573.03 498L573.07 498.01Z" fill="#3292A6"/>
<path d="M568.68 548.87C573.55 552.47 594.21 554.1 594.21 554.1C594.21 554.1 586.61 534.83 581.73 531.22C579.382 529.793 576.584 529.297 573.888 529.829C571.192 530.361 568.793 531.883 567.163 534.095C565.532 536.307 564.789 539.049 565.079 541.782C565.369 544.514 566.672 547.039 568.73 548.86L568.68 548.87Z" fill="#3292A6"/>
<path opacity="0.1" d="M611.52 398.64C611.52 404.7 600.52 422.27 600.52 422.27C600.52 422.27 589.52 404.7 589.52 398.64C589.725 395.871 590.97 393.281 593.004 391.392C595.039 389.502 597.713 388.452 600.49 388.452C603.267 388.452 605.941 389.502 607.976 391.392C610.01 393.281 611.255 395.871 611.46 398.64H611.52Z" fill="#3292A6"/>
<path opacity="0.1" d="M629.66 432.2C626.37 437.29 607.61 446.07 607.61 446.07C607.61 446.07 607.95 425.36 611.24 420.27C611.97 418.949 612.964 417.792 614.16 416.871C615.356 415.95 616.729 415.285 618.193 414.918C619.657 414.551 621.181 414.489 622.671 414.736C624.16 414.983 625.582 415.534 626.849 416.355C628.116 417.176 629.2 418.248 630.035 419.506C630.87 420.764 631.436 422.18 631.7 423.666C631.964 425.153 631.919 426.677 631.568 428.145C631.217 429.613 630.567 430.994 629.66 432.2V432.2Z" fill="#3292A6"/>
<path opacity="0.1" d="M628.9 489.57C623.49 492.3 602.9 490.41 602.9 490.41C602.9 490.41 613.65 472.7 619.06 469.97C620.358 469.184 621.805 468.675 623.31 468.476C624.814 468.276 626.344 468.39 627.802 468.811C629.261 469.231 630.616 469.949 631.784 470.918C632.951 471.888 633.906 473.089 634.586 474.445C635.267 475.801 635.66 477.284 635.74 478.8C635.821 480.315 635.586 481.831 635.052 483.252C634.518 484.672 633.696 485.967 632.637 487.054C631.578 488.142 630.306 488.998 628.9 489.57V489.57Z" fill="#3292A6"/>
<path opacity="0.1" d="M618.49 532.83C613.62 536.43 592.96 538.06 592.96 538.06C592.96 538.06 600.56 518.79 605.44 515.18C607.788 513.753 610.586 513.257 613.282 513.789C615.978 514.321 618.377 515.843 620.007 518.055C621.638 520.267 622.381 523.009 622.091 525.742C621.801 528.474 620.498 530.999 618.44 532.82L618.49 532.83Z" fill="#3292A6"/>
<path opacity="0.1" d="M584.56 447.25C588.91 451.47 609.16 455.85 609.16 455.85C609.16 455.85 604.16 435.74 599.85 431.51C598.844 430.383 597.617 429.475 596.245 428.842C594.873 428.21 593.386 427.867 591.875 427.835C590.365 427.803 588.864 428.082 587.466 428.656C586.069 429.229 584.804 430.084 583.751 431.168C582.699 432.252 581.881 433.54 581.348 434.954C580.815 436.368 580.58 437.876 580.655 439.385C580.731 440.894 581.117 442.371 581.789 443.724C582.461 445.077 583.404 446.277 584.56 447.25V447.25Z" fill="#3292A6"/>
<path opacity="0.1" d="M573.07 498.01C578.48 500.74 599.07 498.85 599.07 498.85C599.07 498.85 588.32 481.14 582.91 478.41C580.345 477.345 577.472 477.29 574.868 478.255C572.264 479.221 570.121 481.136 568.871 483.616C567.62 486.096 567.354 488.957 568.125 491.625C568.897 494.293 570.649 496.57 573.03 498L573.07 498.01Z" fill="#3292A6"/>
<path opacity="0.1" d="M568.68 548.87C573.55 552.47 594.21 554.1 594.21 554.1C594.21 554.1 586.61 534.83 581.73 531.22C579.382 529.793 576.584 529.297 573.888 529.829C571.192 530.361 568.793 531.883 567.163 534.095C565.532 536.307 564.789 539.049 565.079 541.782C565.369 544.514 566.672 547.039 568.73 548.86L568.68 548.87Z" fill="#3292A6"/>
<path opacity="0.5" d="M669.9 15.31H663.62C664.215 15.3384 664.809 15.2457 665.367 15.0377C665.925 14.8296 666.435 14.5105 666.866 14.0996C667.297 13.6886 667.64 13.1945 667.874 12.6471C668.109 12.0998 668.23 11.5105 668.23 10.915C668.23 10.3195 668.109 9.73025 667.874 9.18286C667.64 8.63547 667.297 8.14136 666.866 7.73045C666.435 7.31954 665.925 7.00039 665.367 6.79233C664.809 6.58427 664.215 6.49162 663.62 6.52H612.7C611.571 6.57389 610.505 7.06045 609.725 7.87877C608.945 8.69709 608.51 9.78435 608.51 10.915C608.51 12.0456 608.945 13.1329 609.725 13.9512C610.505 14.7695 611.571 15.2561 612.7 15.31H618.98C617.851 15.3639 616.785 15.8505 616.005 16.6688C615.225 17.4871 614.79 18.5744 614.79 19.705C614.79 20.8357 615.225 21.9229 616.005 22.7412C616.785 23.5595 617.851 24.0461 618.98 24.1H610.19C609.595 24.0716 609.001 24.1643 608.443 24.3723C607.885 24.5804 607.375 24.8995 606.944 25.3104C606.513 25.7214 606.17 26.2155 605.936 26.7629C605.701 27.3102 605.58 27.8995 605.58 28.495C605.58 29.0905 605.701 29.6797 605.936 30.2271C606.17 30.7745 606.513 31.2686 606.944 31.6795C607.375 32.0904 607.885 32.4096 608.443 32.6177C609.001 32.8257 609.595 32.9184 610.19 32.89H661.07C661.665 32.9184 662.259 32.8257 662.817 32.6177C663.375 32.4096 663.885 32.0904 664.316 31.6795C664.747 31.2686 665.09 30.7745 665.324 30.2271C665.559 29.6797 665.68 29.0905 665.68 28.495C665.68 27.8995 665.559 27.3102 665.324 26.7629C665.09 26.2155 664.747 25.7214 664.316 25.3104C663.885 24.8995 663.375 24.5804 662.817 24.3723C662.259 24.1643 661.665 24.0716 661.07 24.1H669.9C671.029 24.0461 672.095 23.5595 672.875 22.7412C673.655 21.9229 674.09 20.8357 674.09 19.705C674.09 18.5744 673.655 17.4871 672.875 16.6688C672.095 15.8505 671.029 15.3639 669.9 15.31Z" fill="#DEE3F3"/>
<path opacity="0.5" d="M375.68 40.95H370.9C371.355 40.9749 371.81 40.9068 372.237 40.7499C372.665 40.593 373.056 40.3507 373.386 40.0376C373.717 39.7246 373.98 39.3474 374.16 38.9291C374.34 38.5109 374.433 38.0603 374.433 37.605C374.433 37.1497 374.34 36.6991 374.16 36.2808C373.98 35.8626 373.717 35.4854 373.386 35.1724C373.056 34.8593 372.665 34.6169 372.237 34.4601C371.81 34.3032 371.355 34.2351 370.9 34.26H332.18C331.324 34.3068 330.519 34.6796 329.93 35.3018C329.341 35.924 329.013 36.7482 329.013 37.605C329.013 38.4618 329.341 39.286 329.93 39.9082C330.519 40.5304 331.324 40.9032 332.18 40.95H336.96C336.505 40.9251 336.05 40.9932 335.623 41.1501C335.195 41.3069 334.804 41.5493 334.474 41.8624C334.143 42.1754 333.88 42.5526 333.7 42.9708C333.52 43.3891 333.427 43.8397 333.427 44.295C333.427 44.7503 333.52 45.2009 333.7 45.6191C333.88 46.0374 334.143 46.4146 334.474 46.7276C334.804 47.0407 335.195 47.283 335.623 47.4399C336.05 47.5968 336.505 47.6649 336.96 47.64H330.27C329.815 47.6151 329.36 47.6832 328.933 47.8401C328.505 47.9969 328.114 48.2393 327.784 48.5523C327.453 48.8654 327.19 49.2426 327.01 49.6608C326.83 50.0791 326.737 50.5297 326.737 50.985C326.737 51.4403 326.83 51.8909 327.01 52.3091C327.19 52.7274 327.453 53.1046 327.784 53.4176C328.114 53.7307 328.505 53.973 328.933 54.1299C329.36 54.2868 329.815 54.3549 330.27 54.33H368.99C369.445 54.3549 369.9 54.2868 370.327 54.1299C370.755 53.973 371.146 53.7307 371.476 53.4176C371.807 53.1046 372.07 52.7274 372.25 52.3091C372.43 51.8909 372.523 51.4403 372.523 50.985C372.523 50.5297 372.43 50.0791 372.25 49.6608C372.07 49.2426 371.807 48.8654 371.476 48.5523C371.146 48.2393 370.755 47.9969 370.327 47.8401C369.9 47.6832 369.445 47.6151 368.99 47.64H375.68C376.536 47.5932 377.341 47.2204 377.93 46.5982C378.519 45.976 378.847 45.1518 378.847 44.295C378.847 43.4382 378.519 42.6139 377.93 41.9918C377.341 41.3696 376.536 40.9968 375.68 40.95V40.95Z" fill="white"/>
<path opacity="0.5" d="M533.943 78.695H529.163C529.618 78.7199 530.073 78.6518 530.5 78.4949C530.927 78.338 531.318 78.0957 531.649 77.7826C531.98 77.4696 532.243 77.0924 532.423 76.6741C532.603 76.2559 532.696 75.8053 532.696 75.35C532.696 74.8947 532.603 74.4441 532.423 74.0259C532.243 73.6076 531.98 73.2304 531.649 72.9174C531.318 72.6043 530.927 72.3619 530.5 72.2051C530.073 72.0482 529.618 71.9801 529.163 72.005H490.443C489.587 72.0518 488.782 72.4246 488.193 73.0468C487.604 73.669 487.276 74.4932 487.276 75.35C487.276 76.2068 487.604 77.031 488.193 77.6532C488.782 78.2754 489.587 78.6482 490.443 78.695H495.223C494.768 78.6701 494.313 78.7382 493.886 78.8951C493.458 79.0519 493.067 79.2943 492.737 79.6074C492.406 79.9204 492.143 80.2976 491.963 80.7158C491.783 81.1341 491.69 81.5847 491.69 82.04C491.69 82.4953 491.783 82.9459 491.963 83.3641C492.143 83.7824 492.406 84.1596 492.737 84.4726C493.067 84.7857 493.458 85.028 493.886 85.1849C494.313 85.3418 494.768 85.4099 495.223 85.385H488.533C488.078 85.3601 487.623 85.4282 487.196 85.5851C486.768 85.7419 486.377 85.9843 486.047 86.2974C485.716 86.6104 485.453 86.9876 485.273 87.4058C485.093 87.8241 485 88.2747 485 88.73C485 89.1853 485.093 89.6359 485.273 90.0541C485.453 90.4724 485.716 90.8496 486.047 91.1626C486.377 91.4757 486.768 91.7181 487.196 91.8749C487.623 92.0318 488.078 92.0999 488.533 92.075H527.253C527.708 92.0999 528.163 92.0318 528.59 91.8749C529.017 91.7181 529.408 91.4757 529.739 91.1626C530.07 90.8496 530.333 90.4724 530.513 90.0541C530.693 89.6359 530.786 89.1853 530.786 88.73C530.786 88.2747 530.693 87.8241 530.513 87.4058C530.333 86.9876 530.07 86.6104 529.739 86.2974C529.408 85.9843 529.017 85.7419 528.59 85.5851C528.163 85.4282 527.708 85.3601 527.253 85.385H533.943C534.798 85.3382 535.604 84.9654 536.193 84.3432C536.782 83.721 537.11 82.8968 537.11 82.04C537.11 81.1832 536.782 80.359 536.193 79.7368C535.604 79.1146 534.798 78.7418 533.943 78.695V78.695Z" fill="white"/>
<path d="M50.68 514.76C50.68 514.76 68.18 549.11 53.92 567.9C39.66 586.69 55.22 637.9 55.22 637.9" stroke="#3292A6" stroke-miterlimit="10"/>
<path d="M55.9 504.02C55.9 510.64 51.04 516.02 51.04 516.02C51.04 516.02 46.18 510.65 46.18 504.02C46.18 497.39 51.04 492.02 51.04 492.02C51.04 492.02 55.9 497.4 55.9 504.02Z" fill="#3292A6"/>
<path d="M59.75 514.76C59.75 514.76 42.25 549.11 56.51 567.9C70.77 586.69 55.21 637.9 55.21 637.9" stroke="#3292A6" stroke-miterlimit="10"/>
<path d="M54.57 504.02C54.57 510.64 59.43 516.02 59.43 516.02C59.43 516.02 64.29 510.65 64.29 504.02C64.29 497.39 59.43 492.02 59.43 492.02C59.43 492.02 54.57 497.4 54.57 504.02Z" fill="#3292A6"/>
<path opacity="0.1" d="M54.57 504.02C54.57 510.64 59.43 516.02 59.43 516.02C59.43 516.02 64.29 510.65 64.29 504.02C64.29 497.39 59.43 492.02 59.43 492.02C59.43 492.02 54.57 497.4 54.57 504.02Z" fill="black"/>
<path d="M66.9 514.76C66.9 514.76 84.4 549.11 70.14 567.9C55.88 586.69 71.44 637.9 71.44 637.9" stroke="#3292A6" stroke-miterlimit="10"/>
<path d="M72.07 504.02C72.07 510.64 67.21 516.02 67.21 516.02C67.21 516.02 62.35 510.65 62.35 504.02C62.35 497.39 67.21 492.02 67.21 492.02C67.21 492.02 72.07 497.4 72.07 504.02Z" fill="#3292A6"/>
<path d="M69.34 531.54C64.75 536.31 57.52 536.81 57.52 536.81C57.52 536.81 57.74 529.57 62.33 524.81C66.92 520.05 74.15 519.54 74.15 519.54C74.15 519.54 73.9 526.76 69.34 531.54Z" fill="#3292A6"/>
<path d="M69.8 555.24C65.21 560.01 57.98 560.51 57.98 560.51C57.98 560.51 58.2 553.27 62.79 548.51C67.38 543.75 74.61 543.24 74.61 543.24C74.61 543.24 74.39 550.46 69.8 555.24Z" fill="#3292A6"/>
<path d="M44.9 568.27C49.24 573.27 49.09 580.51 49.09 580.51C49.09 580.51 41.9 579.64 37.56 574.64C33.22 569.64 33.37 562.4 33.37 562.4C33.37 562.4 40.56 563.27 44.9 568.27Z" fill="#3292A6"/>
<path d="M48.9 517.76C54.42 521.42 56.21 528.44 56.21 528.44C56.21 528.44 49.05 529.53 43.53 525.87C38.01 522.21 36.22 515.19 36.22 515.19C36.22 515.19 43.41 514.08 48.9 517.76Z" fill="#3292A6"/>
<path opacity="0.1" d="M48.9 517.76C54.42 521.42 56.21 528.44 56.21 528.44C56.21 528.44 49.05 529.53 43.53 525.87C38.01 522.21 36.22 515.19 36.22 515.19C36.22 515.19 43.41 514.08 48.9 517.76Z" fill="black"/>
<path d="M75.95 514.76C75.95 514.76 58.45 549.11 72.71 567.9C86.97 586.69 71.41 637.9 71.41 637.9" stroke="#3292A6" stroke-miterlimit="10"/>
<path d="M70.77 504.02C70.77 510.64 75.63 516.02 75.63 516.02C75.63 516.02 80.49 510.65 80.49 504.02C80.49 497.39 75.63 492.02 75.63 492.02C75.63 492.02 70.77 497.4 70.77 504.02Z" fill="#3292A6"/>
<path opacity="0.1" d="M70.77 504.02C70.77 510.64 75.63 516.02 75.63 516.02C75.63 516.02 80.49 510.65 80.49 504.02C80.49 497.39 75.63 492.02 75.63 492.02C75.63 492.02 70.77 497.4 70.77 504.02Z" fill="black"/>
<path d="M72.17 532.05C67.52 536.77 67.17 544.05 67.17 544.05C67.17 544.05 74.4 543.64 79.05 538.92C83.7 534.2 84.05 526.92 84.05 526.92C84.05 526.92 76.82 527.33 72.17 532.05Z" fill="#3292A6"/>
<path opacity="0.1" d="M72.17 532.05C67.52 536.77 67.17 544.05 67.17 544.05C67.17 544.05 74.4 543.64 79.05 538.92C83.7 534.2 84.05 526.92 84.05 526.92C84.05 526.92 76.82 527.33 72.17 532.05Z" fill="black"/>
<path d="M81.28 564.86C76.63 569.58 76.28 576.86 76.28 576.86C76.28 576.86 83.51 576.45 88.16 571.73C92.81 567.01 93.16 559.73 93.16 559.73C93.16 559.73 85.9 560.14 81.28 564.86Z" fill="#3292A6"/>
<path d="M67.9 557.65C67.9 557.65 78.43 541.05 93.22 540.65" stroke="#3292A6" stroke-miterlimit="10"/>
<path d="M59.67 547.62C59.67 547.62 49.14 531.02 34.35 530.62" stroke="#3292A6" stroke-miterlimit="10"/>
<path d="M58.3 571.32C58.3 571.32 68.83 554.72 83.62 554.32" stroke="#3292A6" stroke-miterlimit="10"/>
<path d="M92.71 543.29C94.2177 543.29 95.44 542.068 95.44 540.56C95.44 539.052 94.2177 537.83 92.71 537.83C91.2022 537.83 89.98 539.052 89.98 540.56C89.98 542.068 91.2022 543.29 92.71 543.29Z" fill="#3292A6"/>
<path d="M34.61 533.49C36.1177 533.49 37.34 532.268 37.34 530.76C37.34 529.252 36.1177 528.03 34.61 528.03C33.1023 528.03 31.88 529.252 31.88 530.76C31.88 532.268 33.1023 533.49 34.61 533.49Z" fill="#3292A6"/>
<path d="M66.05 576.76C66.05 576.76 55.52 560.16 40.73 559.76" stroke="#3292A6" stroke-miterlimit="10"/>
<path d="M40.99 562.65C42.4978 562.65 43.72 561.428 43.72 559.92C43.72 558.412 42.4978 557.19 40.99 557.19C39.4823 557.19 38.26 558.412 38.26 559.92C38.26 561.428 39.4823 562.65 40.99 562.65Z" fill="#3292A6"/>
<path d="M83.82 557.19C85.3277 557.19 86.55 555.968 86.55 554.46C86.55 552.952 85.3277 551.73 83.82 551.73C82.3122 551.73 81.09 552.952 81.09 554.46C81.09 555.968 82.3122 557.19 83.82 557.19Z" fill="#3292A6"/>
<path d="M124.28 617.91C124.28 617.91 98.9 612.83 92.12 606.06C85.34 599.29 54.9 587.45 51.51 595.91C48.12 604.37 5.82002 633.14 34.59 638.22C63.36 643.3 102.28 644.99 110.74 641.6C119.2 638.21 124.28 617.91 124.28 617.91Z" fill="#A8A8A8"/>
<path opacity="0.2" d="M34.59 635.07C63.36 640.15 102.28 641.84 110.74 638.45C117.18 635.87 121.66 623.45 123.43 617.73L124.28 617.91C124.28 617.91 119.2 638.22 110.74 641.6C102.28 644.98 63.36 643.29 34.59 638.22C26.29 636.75 23.91 633.31 24.81 628.96C25.51 631.76 28.41 633.98 34.59 635.07Z" fill="black"/>
<path d="M894.83 522.54C894.83 522.54 903.21 533.54 890.96 550.04C878.71 566.54 868.61 580.55 872.7 590.87C872.7 590.87 891.18 560.14 906.22 559.71C921.26 559.28 911.38 541.01 894.83 522.54Z" fill="#3292A6"/>
<path opacity="0.1" d="M894.83 522.54C895.56 523.6 896.136 524.758 896.54 525.98C911.22 543.22 919.03 559.31 904.93 559.72C891.79 560.1 876.03 583.59 872.25 589.53C872.375 589.988 872.525 590.439 872.7 590.88C872.7 590.88 891.18 560.15 906.22 559.72C921.26 559.29 911.38 541.01 894.83 522.54Z" fill="black"/>
<path d="M910.41 536.5C910.41 540.36 909.98 543.5 909.41 543.5C908.84 543.5 908.41 540.37 908.41 536.5C908.41 532.63 908.95 534.5 909.48 534.5C910.01 534.5 910.41 532.65 910.41 536.5Z" fill="#FFD037"/>
<path d="M915.76 541.11C912.37 542.96 909.42 544.11 909.17 543.6C908.92 543.09 911.45 541.25 914.84 539.41C918.23 537.57 916.89 538.91 917.15 539.41C917.41 539.91 919.14 539.26 915.76 541.11Z" fill="#FFD037"/>
<path d="M850.57 522.54C850.57 522.54 842.19 533.54 854.44 550.04C866.69 566.54 876.79 580.55 872.7 590.87C872.7 590.87 854.22 560.14 839.18 559.71C824.14 559.28 834.02 541.01 850.57 522.54Z" fill="#3292A6"/>
<path opacity="0.1" d="M850.57 522.54C849.84 523.6 849.264 524.758 848.86 525.98C834.18 543.22 826.37 559.31 840.47 559.72C853.61 560.1 869.37 583.59 873.15 589.53C873.025 589.988 872.875 590.439 872.7 590.88C872.7 590.88 854.22 560.15 839.18 559.72C824.14 559.29 834.02 541.01 850.57 522.54Z" fill="black"/>
<path d="M834.99 536.5C834.99 540.36 835.42 543.5 835.99 543.5C836.56 543.5 836.99 540.37 836.99 536.5C836.99 532.63 836.45 534.5 835.92 534.5C835.39 534.5 834.99 532.65 834.99 536.5Z" fill="#FFD037"/>
<path d="M829.64 541.11C833.03 542.96 835.98 544.11 836.23 543.6C836.48 543.09 833.95 541.25 830.56 539.41C827.17 537.57 828.51 538.91 828.25 539.41C827.99 539.91 826.25 539.26 829.64 541.11Z" fill="#FFD037"/>
<path d="M837.66 589.43C837.66 589.43 861.09 588.71 868.15 583.68C875.21 578.65 904.15 572.68 905.94 580.68C907.73 588.68 941.15 620.79 914.7 621C888.25 621.21 853.24 616.88 846.19 612.59C839.14 608.3 837.66 589.43 837.66 589.43Z" fill="#A8A8A8"/>
<path opacity="0.2" d="M915.17 618.23C888.72 618.44 853.71 614.11 846.66 609.82C841.29 606.55 839.15 594.82 838.44 589.41H837.66C837.66 589.41 839.14 608.31 846.19 612.6C853.24 616.89 888.25 621.23 914.7 621.01C922.34 620.95 924.97 618.23 924.83 614.21C923.77 616.66 920.9 618.18 915.17 618.23Z" fill="black"/>
<path opacity="0.5" d="M177.84 74.64H171.56C172.155 74.6684 172.749 74.5757 173.307 74.3677C173.865 74.1596 174.375 73.8405 174.806 73.4295C175.237 73.0186 175.58 72.5245 175.814 71.9771C176.049 71.4297 176.17 70.8405 176.17 70.245C176.17 69.6495 176.049 69.0602 175.814 68.5129C175.58 67.9655 175.237 67.4714 174.806 67.0605C174.375 66.6495 173.865 66.3304 173.307 66.1223C172.749 65.9143 172.155 65.8216 171.56 65.85H120.68C119.551 65.9039 118.485 66.3905 117.705 67.2088C116.925 68.0271 116.49 69.1144 116.49 70.245C116.49 71.3757 116.925 72.4629 117.705 73.2812C118.485 74.0995 119.551 74.5861 120.68 74.64H126.96C125.831 74.6939 124.765 75.1805 123.985 75.9988C123.205 76.8171 122.77 77.9044 122.77 79.035C122.77 80.1656 123.205 81.2529 123.985 82.0712C124.765 82.8895 125.831 83.3761 126.96 83.43H118.17C117.041 83.4839 115.975 83.9705 115.195 84.7888C114.415 85.6071 113.98 86.6944 113.98 87.825C113.98 88.9557 114.415 90.0429 115.195 90.8612C115.975 91.6795 117.041 92.1661 118.17 92.22H169.05C169.645 92.2484 170.239 92.1557 170.797 91.9477C171.355 91.7396 171.865 91.4205 172.296 91.0095C172.727 90.5986 173.07 90.1045 173.304 89.5571C173.539 89.0097 173.66 88.4205 173.66 87.825C173.66 87.2295 173.539 86.6402 173.304 86.0929C173.07 85.5455 172.727 85.0514 172.296 84.6405C171.865 84.2295 171.355 83.9104 170.797 83.7023C170.239 83.4943 169.645 83.4016 169.05 83.43H177.84C178.969 83.3761 180.035 82.8895 180.815 82.0712C181.595 81.2529 182.03 80.1656 182.03 79.035C182.03 77.9044 181.595 76.8171 180.815 75.9988C180.035 75.1805 178.969 74.6939 177.84 74.64V74.64Z" fill="white"/>
</g>
<defs>
<linearGradient id="paint0_linear" x1="460.5" y1="543.76" x2="460.5" y2="129.76" gradientUnits="userSpaceOnUse">
<stop stop-color="#808080" stop-opacity="0.25"/>
<stop offset="0.54" stop-color="#808080" stop-opacity="0.12"/>
<stop offset="1" stop-color="#808080" stop-opacity="0.1"/>
</linearGradient>
<linearGradient id="paint1_linear" x1="382.874" y1="473.353" x2="382.874" y2="473.305" gradientUnits="userSpaceOnUse">
<stop stop-color="#808080" stop-opacity="0.25"/>
<stop offset="0.54" stop-color="#808080" stop-opacity="0.12"/>
<stop offset="1" stop-color="#808080" stop-opacity="0.1"/>
</linearGradient>
<clipPath id="clip0">
<rect width="949.8" height="661.52" fill="white"/>
</clipPath>
</defs>
</svg>
